<svg width="60" height="60" viewBox="0 0 79 103" fill="none" xmlns="http://www.w3.org/2000/svg">
<path d="M10.1494 102.627C7.46816 102.627 5.17366 101.673 3.26591 99.7652C1.35816 97.8574 0.402664 95.5613 0.399414 92.8768V44.1268C0.399414 41.4455 1.35491 39.151 3.26591 37.2433C5.17691 35.3355 7.47141 34.38 10.1494 34.3768H15.0244V24.6268C15.0244 17.883 17.4018 12.1354 22.1565 7.3839C26.9113 2.6324 32.6589 0.255023 39.3994 0.251773C46.1399 0.248523 51.8892 2.6259 56.6472 7.3839C61.4052 12.1419 63.7809 17.8895 63.7744 24.6268V34.3768H68.6494C71.3307 34.3768 73.6268 35.3323 75.5378 37.2433C77.4488 39.1543 78.4027 41.4488 78.3994 44.1268V92.8768C78.3994 95.558 77.4455 97.8542 75.5378 99.7652C73.63 101.676 71.3339 102.63 68.6494 102.627H10.1494ZM39.3994 78.2518C42.0807 78.2518 44.3768 77.2979 46.2878 75.3902C48.1988 73.4824 49.1527 71.1863 49.1494 68.5018C49.1462 65.8173 48.1923 63.5228 46.2878 61.6183C44.3833 59.7138 42.0872 58.7583 39.3994 58.7518C36.7117 58.7453 34.4172 59.7008 32.5159 61.6183C30.6147 63.5358 29.6592 65.8303 29.6494 68.5018C29.6397 71.1733 30.5952 73.4694 32.5159 75.3902C34.4367 77.3109 36.7312 78.2648 39.3994 78.2518ZM24.7744 34.3768H54.0244V24.6268C54.0244 20.5643 52.6025 17.1112 49.7588 14.2674C46.915 11.4236 43.4619 10.0018 39.3994 10.0018C35.3369 10.0018 31.8838 11.4236 29.04 14.2674C26.1963 17.1112 24.7744 20.5643 24.7744 24.6268V34.3768Z" fill="white"/>
</svg>
